<svg version="1.1" xmlns="http://www.w3.org/2000/svg" style="display: block;" viewBox="0 0 2048 2048" width="1024" height="1024" preserveAspectRatio="none">
<path transform="translate(0,0)" fill="rgb(120,99,242)" d="M 626.088 717.748 L 532.075 670.496 C 499.156 653.901 451.484 638.478 453.815 593.703 C 455.505 561.241 472.021 549.335 499.616 536.341 C 526.411 523.725 553.346 511.318 580.293 498.981 L 770.402 412.663 L 915.668 346.345 C 936.583 336.907 961.089 324.82 982.234 317.235 C 1006.31 308.598 1041.46 310.961 1065.73 317.418 C 1083.25 322.476 1105.69 333.876 1122.76 341.863 C 1151.25 355.269 1179.82 368.485 1208.49 381.509 L 1430.46 482.138 L 1507.22 517.085 C 1525.41 525.368 1543.36 533.256 1561.21 542.664 C 1576.18 550.559 1584.07 558.995 1590.93 574.595 C 1600.7 595.739 1592 625.639 1573.25 639.291 C 1556.88 651.212 1535.67 660.324 1517.58 669.761 C 1486.26 686.097 1453.04 701.034 1422.24 718.3 C 1445.3 726.65 1479.07 743.043 1501.59 754.237 C 1511.86 757.969 1521.71 764.172 1531.64 767.857 C 1567.73 781.243 1608.62 808.837 1591.17 854.997 C 1587.68 864.417 1581.86 872.797 1574.25 879.349 C 1564.91 887.289 1542.2 897.921 1530.36 903.889 L 1462.04 938.434 C 1451.29 943.928 1434.03 952.348 1424.12 958.419 C 1449.93 969.861 1477.18 983.204 1502.68 995.613 C 1527.98 1007.15 1577.69 1024.75 1588.78 1050.31 C 1615.72 1112.43 1550.69 1134.39 1511.13 1154.5 L 1407.05 1207.78 L 1144.58 1342.16 C 1115.64 1356.81 1085.86 1376.28 1054.47 1384.21 C 1008.74 1395.77 972.807 1378.84 933.752 1358.51 L 876.791 1328.88 L 683.767 1229.32 L 543.523 1157.6 C 522.312 1146.68 499.594 1135.94 479.136 1123.82 C 471.196 1118.4 462.786 1109.51 459.126 1100.55 C 438.302 1049.57 474.419 1028.42 511.139 1011.12 C 522.926 1005.55 534.753 1000.08 546.621 994.693 C 572.169 982.112 598.85 971.298 624.095 958.715 C 594.638 941.378 560.615 925.937 530.045 909.768 C 490.586 888.897 437.399 872.429 457.088 814.727 C 465.207 790.931 489.351 780.827 510.013 771.209 C 522.388 765.499 534.799 759.867 547.244 754.311 C 573.584 742.67 599.454 729.071 626.088 717.748 z"/>
<path transform="translate(0,0)" fill="rgb(57,130,240)" d="M 626.088 717.748 L 532.075 670.496 C 499.156 653.901 451.484 638.478 453.815 593.703 C 455.505 561.241 472.021 549.335 499.616 536.341 C 526.411 523.725 553.346 511.318 580.293 498.981 L 770.402 412.663 L 915.668 346.345 C 936.583 336.907 961.089 324.82 982.234 317.235 C 1006.31 308.598 1041.46 310.961 1065.73 317.418 C 1083.25 322.476 1105.69 333.876 1122.76 341.863 C 1151.25 355.269 1179.82 368.485 1208.49 381.509 L 1430.46 482.138 L 1507.22 517.085 C 1525.41 525.368 1543.36 533.256 1561.21 542.664 C 1576.18 550.559 1584.07 558.995 1590.93 574.595 C 1600.7 595.739 1592 625.639 1573.25 639.291 C 1556.88 651.212 1535.67 660.324 1517.58 669.761 C 1486.26 686.097 1453.04 701.034 1422.24 718.3 C 1407.15 725.316 1393.09 733.761 1378.26 741 C 1308.37 775.669 1238.78 810.94 1169.5 846.81 L 1110.61 876.835 C 1095.26 884.605 1078.93 893.704 1062.46 898.613 C 996.93 918.133 947.657 880.769 892.041 853.114 L 727.064 769.11 C 693.379 751.866 659.694 735.302 626.088 717.748 z"/>
<path transform="translate(0,0)" fill="rgb(120,99,242)" d="M 624.095 958.715 C 641.099 964.454 664.134 979.409 681.171 987.737 C 755.025 1023.84 827.461 1063.11 901.027 1099.85 C 930.855 1114.7 964.579 1135.57 996.98 1142.69 C 1025.67 1149 1059.11 1144.04 1085.24 1131.19 C 1109.93 1118.84 1134.74 1105.78 1159.46 1093.21 L 1336.79 1002.77 L 1392.35 974.421 C 1398.67 971.138 1418.44 960.453 1424.12 958.419 C 1449.93 969.861 1477.18 983.204 1502.68 995.613 C 1527.98 1007.15 1577.69 1024.75 1588.78 1050.31 C 1615.72 1112.43 1550.69 1134.39 1511.13 1154.5 L 1407.05 1207.78 L 1144.58 1342.16 C 1115.64 1356.81 1085.86 1376.28 1054.47 1384.21 C 1008.74 1395.77 972.807 1378.84 933.752 1358.51 L 876.791 1328.88 L 683.767 1229.32 L 543.523 1157.6 C 522.312 1146.68 499.594 1135.94 479.136 1123.82 C 471.196 1118.4 462.786 1109.51 459.126 1100.55 C 438.302 1049.57 474.419 1028.42 511.139 1011.12 C 522.926 1005.55 534.753 1000.08 546.621 994.693 C 572.169 982.112 598.85 971.298 624.095 958.715 z"/>
<path transform="translate(0,0)" fill="rgb(91,84,204)" d="M 624.095 958.715 C 641.099 964.454 664.134 979.409 681.171 987.737 C 755.025 1023.84 827.461 1063.11 901.027 1099.85 C 930.855 1114.7 964.579 1135.57 996.98 1142.69 C 1025.67 1149 1059.11 1144.04 1085.24 1131.19 C 1109.93 1118.84 1134.74 1105.78 1159.46 1093.21 L 1336.79 1002.77 L 1392.35 974.421 C 1398.67 971.138 1418.44 960.453 1424.12 958.419 C 1449.93 969.861 1477.18 983.204 1502.68 995.613 C 1496.37 998.453 1486.06 1004.45 1479.45 1007.85 C 1462.06 1016.71 1444.63 1025.49 1427.16 1034.17 L 1177.99 1160.92 L 1124.06 1188.46 C 1073.53 1214.68 1029.82 1235.21 971.718 1211.66 C 942.081 1199.65 914.245 1183.22 885.751 1168.68 L 728.222 1088.42 L 641.242 1044.19 C 627.903 1037.54 553.448 1001.08 546.621 994.693 C 572.169 982.112 598.85 971.298 624.095 958.715 z"/>
<path transform="translate(0,0)" fill="rgb(91,84,204)" d="M 626.088 717.748 C 659.694 735.302 693.379 751.866 727.064 769.11 L 892.041 853.114 C 947.657 880.769 996.93 918.133 1062.46 898.613 C 1078.93 893.704 1095.26 884.605 1110.61 876.835 L 1169.5 846.81 C 1238.78 810.94 1308.37 775.669 1378.26 741 C 1393.09 733.761 1407.15 725.316 1422.24 718.3 C 1445.3 726.65 1479.07 743.043 1501.59 754.237 C 1476.16 768.861 1443.85 783.672 1417.13 797.244 L 1239.28 887.488 L 1138.68 938.719 C 1087.58 965.106 1047.88 990.964 987.342 974.94 C 979.155 972.769 971.182 969.858 963.522 966.241 C 943.966 957.088 922.647 945.679 903.293 935.813 L 808.658 887.581 L 638.571 801.205 C 617.887 790.604 597.117 780.173 576.263 769.913 C 570.036 766.783 551.577 757.893 547.244 754.311 C 573.584 742.67 599.454 729.071 626.088 717.748 z"/>
<path transform="translate(0,0)" fill="rgb(44,46,49)" d="M 862.742 1561.38 C 899.097 1556.29 937.654 1580.54 945.453 1616.71 C 948.143 1629.18 948.154 1638.68 948.276 1651.3 C 908.171 1652.22 867.115 1650.34 826.731 1651.53 C 839.451 1697.21 886.986 1697.35 918.943 1671.89 C 924.379 1676.17 934.323 1687.83 939.28 1693.42 C 912.88 1726.63 851.8 1727.35 820.141 1702.54 C 773.241 1665.77 783.611 1584.29 841.924 1565.63 C 849.515 1563.2 854.867 1562.35 862.742 1561.38 z M 826.93 1627.15 C 843.925 1627.86 861.448 1627.59 878.5 1627.53 L 913.924 1627.44 C 905.737 1599.75 893.443 1588.7 863.374 1590.26 C 842.34 1595.36 831.465 1605.47 826.93 1627.15 z"/>
<path transform="translate(0,0)" fill="rgb(44,46,49)" d="M 520.939 1561.4 C 523.477 1561.21 526.019 1561.09 528.563 1561.03 C 548.17 1560.64 569.264 1564.27 583.769 1578.62 C 604.683 1599.31 600.594 1633.26 600.588 1660.82 L 600.575 1717.01 C 590.499 1716.58 577.346 1717.01 567.022 1717.09 L 566.944 1700.57 C 543.328 1727.7 487.907 1726.18 466.811 1697.41 C 456.876 1680.39 457.029 1656.29 471.737 1642.28 C 493.669 1621.38 536.746 1626.85 564.789 1627.14 C 563.336 1610.16 559.449 1596.74 540.377 1592.27 C 518.246 1587.09 497.886 1594.86 479.255 1606.63 C 474.417 1598.09 469.288 1589.31 464.806 1580.6 C 483.576 1567.39 498.558 1563.49 520.939 1561.4 z M 535.926 1691.96 C 559.665 1685.71 564.902 1673.44 565.059 1650.72 C 551.548 1650.94 537.676 1650.1 524.532 1650.49 C 515.446 1651.24 506.858 1652.02 500.461 1659.68 C 497.555 1663.21 496.181 1667.75 496.646 1672.3 C 498.397 1690.1 518.784 1694.81 533.671 1692.37 C 534.424 1692.25 535.176 1692.11 535.926 1691.96 z"/>
<path transform="translate(0,0)" fill="rgb(44,46,49)" d="M 1428.2 1561.39 C 1472.78 1554.77 1511.14 1577.49 1510.53 1625.41 C 1510.15 1655.43 1510.3 1686.97 1510.73 1716.97 C 1499.5 1717.11 1488.28 1717.16 1477.06 1717.12 L 1476.43 1701.26 C 1450.43 1726.57 1403.22 1725.94 1378.49 1698.78 C 1372.78 1690 1369.62 1682.18 1369.97 1671.57 C 1371.71 1618.84 1440.02 1626.38 1474.77 1627.04 C 1474.05 1620.05 1473.44 1611.44 1469.35 1605.66 C 1450.27 1578.74 1411.13 1592.54 1389.63 1605.93 C 1384.77 1597.53 1380.02 1589.07 1375.38 1580.55 C 1394.42 1568.31 1405.72 1564.24 1428.2 1561.39 z M 1446.69 1691.79 C 1461.11 1687.22 1466.17 1682.86 1473.98 1669.79 C 1474.08 1663.67 1474.27 1657.28 1474.2 1651.19 C 1461.65 1649.76 1447.35 1650.09 1434.69 1650.44 C 1425.62 1651.18 1416.76 1651.74 1410.33 1659.51 C 1407.01 1663.47 1405.61 1668.69 1406.52 1673.78 C 1409.64 1692.2 1431.49 1695.2 1446.69 1691.79 z"/>
<path transform="translate(0,0)" fill="rgb(44,46,49)" d="M 617.271 1562.96 L 654.974 1563.32 C 672.12 1597.12 685.917 1639.36 703.097 1673.92 C 710.042 1659.78 717.447 1640.49 723.547 1625.53 C 732.215 1604.82 740.634 1584 748.802 1563.08 C 761.545 1563.39 772.293 1563.59 785.021 1563.03 C 779.751 1577.58 771.037 1596.02 764.782 1610.62 L 732.023 1688.69 C 723.569 1709.59 715.237 1733.53 702.576 1752.09 C 684.046 1779.25 641.743 1780.26 617 1761.24 C 619.556 1754.14 626.441 1740.96 629.961 1733.71 C 655.042 1752.39 674.147 1745.91 684.32 1716.86 L 617.271 1562.96 z"/>
<path transform="translate(0,0)" fill="rgb(44,46,49)" d="M 1157.6 1561.34 C 1188.58 1558.56 1218.87 1568.08 1234.63 1596.48 C 1225.6 1601.5 1216.16 1607.5 1207.18 1612.83 C 1195.96 1599.21 1181.94 1589.48 1163.42 1591.2 C 1150.94 1592.34 1139.49 1598.58 1131.76 1608.44 C 1115.72 1629.02 1118.04 1664.83 1140.46 1680.04 C 1162.24 1694.82 1188.92 1691.51 1204.48 1669.53 L 1206.46 1667.86 C 1211.07 1668.15 1232.03 1679.04 1233.36 1683.29 C 1222.41 1704.33 1207.37 1714.39 1183.94 1718.25 C 1160.47 1722.12 1135.85 1717.96 1116.44 1703.61 C 1073.02 1671.54 1075.42 1597.01 1124.6 1571.41 C 1136.45 1565.19 1144.59 1563.13 1157.6 1561.34 z"/>
<path transform="translate(0,0)" fill="rgb(44,46,49)" d="M 301.065 1514.12 L 338.872 1514.21 C 337.327 1569.47 338.395 1630.77 338.944 1686.3 C 348.518 1684.85 368.535 1685.53 378.951 1685.55 C 400.652 1685.46 422.353 1685.56 444.052 1685.85 C 443.555 1695.01 443.881 1706.45 443.898 1715.78 L 443.115 1716.64 C 438.379 1717.83 409.357 1717.34 401.877 1717.32 L 301.302 1717.05 C 303.419 1679.26 301.19 1633.26 301.913 1594.7 C 302.226 1577.98 302.777 1527.92 301.065 1514.12 z"/>
<path transform="translate(0,0)" fill="rgb(44,46,49)" d="M 1605.12 1501.26 C 1621.07 1499.33 1632.1 1501.46 1646.3 1508.48 C 1643.69 1517.97 1641.5 1525.08 1638.14 1534.32 C 1627.32 1530.03 1611.9 1525.59 1602.37 1535.35 C 1594.71 1543.21 1595.81 1554.52 1595.99 1564.66 C 1609.59 1564.94 1623.2 1565.04 1636.81 1564.98 C 1636.56 1574.19 1636.77 1584.01 1636.81 1593.27 C 1624.98 1592.71 1607.96 1593.11 1596.01 1593.5 L 1595.87 1694.5 L 1596.02 1716.98 L 1559.39 1717.09 C 1561.31 1678.3 1557.68 1632.33 1560.05 1593.33 C 1551.47 1593.13 1542.88 1593.14 1534.3 1593.39 L 1534.26 1565.12 C 1542.84 1565.16 1551.42 1565.15 1560.01 1565.07 C 1556.4 1530.71 1569.97 1507.46 1605.12 1501.26 z"/>
<path transform="translate(0,0)" fill="rgb(44,46,49)" d="M 1668.49 1527.14 C 1681.21 1527.02 1691.69 1527.59 1704.9 1527.05 C 1704.33 1539.15 1704.45 1552.72 1704.34 1564.93 L 1746.22 1564.86 L 1746.22 1592.81 C 1734.81 1591.76 1716.23 1592.46 1704.69 1592.89 C 1704.48 1611.11 1701.08 1662.68 1706.8 1676.52 C 1708.9 1681.6 1712.56 1685.85 1717.72 1687.94 C 1727.54 1691.92 1738.49 1687.5 1747.5 1683.37 C 1749.14 1688.65 1751.28 1694.37 1753.13 1699.64 L 1756.93 1709.7 C 1735.52 1721.97 1703.57 1724.59 1683.65 1707.31 C 1666.07 1692.06 1668.75 1666.36 1668.83 1645.49 C 1668.89 1628.26 1669.19 1610.56 1668.75 1593.03 C 1659.86 1592.65 1652.55 1592.12 1643.63 1593.19 C 1643.79 1583.56 1643.89 1574.63 1643.6 1564.96 L 1668.58 1564.47 C 1668.24 1552.03 1668.2 1539.58 1668.49 1527.14 z"/>
<path transform="translate(0,0)" fill="rgb(44,46,49)" d="M 1059.48 1561.64 C 1063.29 1561.26 1066.1 1560.68 1069.83 1561.57 C 1070.78 1565.65 1070.48 1588.36 1070.57 1594.75 C 1068.59 1594.58 1066.6 1594.48 1064.61 1594.44 C 1030.75 1593.93 1016.73 1615.34 1016.69 1646.93 C 1016.65 1670.28 1016.78 1693.65 1017.03 1716.99 C 1005.31 1716.74 992.751 1716.98 980.962 1717.02 L 980.697 1708.25 C 979.967 1660.73 980.149 1610.62 980.457 1563.07 C 992.753 1563.06 1002.02 1563.76 1014.82 1563.15 C 1014.74 1570.25 1014.83 1577.49 1014.85 1584.6 C 1029.04 1568.31 1037.82 1563.77 1059.48 1561.64 z"/>
<path transform="translate(0,0)" fill="rgb(44,46,49)" d="M 1341.52 1561.36 L 1353.09 1561.11 L 1353.04 1595.12 C 1337.53 1594.41 1322.83 1595.48 1311.27 1607.31 C 1298.41 1620.42 1298.74 1639.76 1298.85 1656.83 C 1298.98 1676.88 1298.91 1696.95 1298.89 1717.01 C 1291.61 1716.83 1267.78 1718.87 1263.36 1715.37 L 1263.1 1711.25 L 1262.97 1563.59 C 1274.37 1563.45 1285.76 1563.39 1297.16 1563.41 L 1297.13 1584.05 C 1309.66 1569.24 1322.46 1563.44 1341.52 1561.36 z"/>
</svg>