<svg width="1024" height="1024" viewBox="0 0 1024 1024" fill="none" xmlns="http://www.w3.org/2000/svg">
<path d="M308.617 359.061L261.61 335.435C245.151 327.137 221.315 319.426 222.48 297.038C223.325 280.807 231.583 274.854 245.381 268.357C258.778 262.049 272.246 255.846 285.719 249.677L380.774 206.518L453.407 173.359C463.864 168.64 476.117 162.597 486.69 158.804C498.728 154.486 516.303 155.667 528.438 158.896C537.198 161.425 548.418 167.125 556.953 171.118C571.198 177.821 585.483 184.429 599.818 190.941L710.803 241.256L749.183 258.729C758.278 262.871 767.253 266.815 776.178 271.519C783.663 275.466 787.608 279.684 791.038 287.484C795.923 298.056 791.573 313.006 782.198 319.832C774.013 325.793 763.408 330.349 754.363 335.067C738.703 343.235 722.093 350.704 706.693 359.337C718.223 363.512 735.108 371.708 746.368 377.305C751.503 379.171 756.428 382.273 761.393 384.115C779.438 390.808 799.883 404.605 791.158 427.685C789.413 432.395 786.503 436.585 782.698 439.861C778.028 443.831 766.673 449.147 760.753 452.131L726.593 469.404C721.218 472.151 712.588 476.361 707.633 479.396C720.538 485.117 734.163 491.789 746.913 497.993C759.563 503.762 784.418 512.562 789.963 525.342C803.433 556.402 770.918 567.382 751.138 577.437L699.098 604.077L567.863 671.267C553.393 678.592 538.503 688.327 522.808 692.292C499.943 698.072 481.976 689.607 462.449 679.442L433.968 664.627L337.456 614.847L267.334 578.987C256.729 573.527 245.37 568.157 235.141 562.097C231.171 559.387 226.966 554.942 225.136 550.462C214.724 524.972 232.782 514.397 251.142 505.747C257.036 502.962 262.949 500.227 268.883 497.533C281.657 491.243 294.998 485.836 307.62 479.544C292.892 470.876 275.88 463.155 260.595 455.071C240.866 444.635 214.272 436.401 224.117 407.55C228.176 395.652 240.248 390.6 250.579 385.791C256.767 382.936 262.972 380.12 269.195 377.342C282.365 371.522 295.3 364.722 308.617 359.061Z" fill="#7863F2"/>
<path d="M381.235 350.693L334.197 328.041C317.727 320.085 293.875 312.692 295.041 291.227C295.887 275.664 304.15 269.957 317.957 263.728C331.363 257.679 344.84 251.732 358.322 245.817L453.439 204.437L526.12 172.644C536.585 168.119 548.846 162.325 559.425 158.689C571.471 154.548 589.058 155.681 601.201 158.776C609.967 161.201 621.194 166.666 629.735 170.495C643.989 176.922 658.284 183.258 672.628 189.501L783.687 237.743L822.092 254.496C831.193 258.467 840.174 262.249 849.105 266.759C856.595 270.544 860.542 274.588 863.975 282.066C868.863 292.203 864.51 306.537 855.129 313.081C846.938 318.796 836.326 323.165 827.275 327.689C811.605 335.52 794.984 342.681 779.574 350.958C772.024 354.322 764.989 358.37 757.569 361.84C722.601 378.461 687.783 395.369 653.12 412.565L623.656 426.959C615.976 430.684 607.805 435.046 599.565 437.4C566.778 446.757 542.126 428.845 514.299 415.588L431.756 375.316C414.902 367.05 398.049 359.109 381.235 350.693Z" fill="#3982F0"/>
<path d="M312.047 479.358C320.549 482.227 332.067 489.704 340.586 493.868C377.513 511.92 413.73 531.555 450.513 549.925C465.427 557.35 482.289 567.785 498.49 571.345C512.835 574.5 529.555 572.02 542.62 565.595C554.965 559.42 567.37 552.89 579.73 546.605L668.395 501.385L696.175 487.211C699.335 485.569 709.22 480.227 712.06 479.21C724.965 484.931 738.59 491.602 751.34 497.806C763.99 503.575 788.845 512.375 794.39 525.155C807.86 556.215 775.345 567.195 755.565 577.25L703.525 603.89L572.29 671.08C557.82 678.405 542.93 688.14 527.235 692.105C504.37 697.885 486.404 689.42 466.876 679.255L438.396 664.44L341.884 614.66L271.762 578.8C261.156 573.34 249.797 567.97 239.568 561.91C235.598 559.2 231.393 554.755 229.563 550.275C219.151 524.785 237.21 514.21 255.57 505.56C261.463 502.775 267.376 500.04 273.31 497.346C286.084 491.056 299.425 485.649 312.047 479.358Z" fill="#7863F2"/>
<path d="M312.047 479.358C320.549 482.227 332.067 489.704 340.586 493.868C377.513 511.92 413.73 531.555 450.513 549.925C465.427 557.35 482.289 567.785 498.49 571.345C512.835 574.5 529.555 572.02 542.62 565.595C554.965 559.42 567.37 552.89 579.73 546.605L668.395 501.385L696.175 487.211C699.335 485.569 709.22 480.227 712.06 479.21C724.965 484.931 738.59 491.602 751.34 497.806C748.185 499.226 743.03 502.225 739.725 503.925C731.03 508.355 722.315 512.745 713.58 517.085L588.995 580.46L562.03 594.23C536.765 607.34 514.91 617.605 485.859 605.83C471.041 599.825 457.122 591.61 442.875 584.34L364.111 544.21L320.621 522.095C313.952 518.77 276.724 500.54 273.31 497.346C286.084 491.056 299.425 485.649 312.047 479.358Z" fill="#5B54CC"/>
<path d="M313.044 358.874C329.847 367.651 346.69 375.933 363.532 384.555L446.021 426.557C473.829 440.385 498.465 459.066 531.23 449.306C539.465 446.852 547.63 442.303 555.305 438.418L584.75 423.405C619.39 405.47 654.185 387.834 689.13 370.5C696.545 366.881 703.575 362.658 711.12 359.15C722.65 363.325 739.535 371.521 750.795 377.118C738.08 384.43 721.925 391.836 708.565 398.622L619.64 443.744L569.34 469.359C543.79 482.553 523.94 495.482 493.671 487.47C489.577 486.385 485.591 484.929 481.761 483.121C471.983 478.544 461.324 472.839 451.647 467.906L404.329 443.79L319.285 400.603C308.943 395.302 298.559 390.087 288.132 384.957C285.018 383.392 275.789 378.946 273.622 377.155C286.792 371.335 299.727 364.535 313.044 358.874Z" fill="#5B54CC"/>
<path d="M431.371 780.69C449.549 778.145 468.827 790.27 472.727 808.355C474.072 814.59 474.077 819.34 474.138 825.65C454.086 826.11 433.558 825.17 413.366 825.765C419.726 848.605 443.493 848.675 459.472 835.945C462.19 838.085 467.162 843.915 469.64 846.71C456.44 863.315 425.9 863.675 410.071 851.27C386.621 832.885 391.806 792.145 420.962 782.815C424.758 781.6 427.434 781.175 431.371 780.69ZM413.465 813.575C421.963 813.93 430.724 813.795 439.25 813.765L456.962 813.72C452.869 799.875 446.722 794.35 431.687 795.13C421.17 797.68 415.733 802.735 413.465 813.575Z" fill="#060606"/>
<path d="M260.47 780.7C261.739 780.605 263.009 780.545 264.281 780.515C274.085 780.32 284.632 782.135 291.884 789.31C302.341 799.655 300.297 816.63 300.294 830.41L300.288 858.505C295.25 858.29 288.673 858.505 283.511 858.545L283.472 850.285C271.664 863.85 243.953 863.09 233.405 848.705C228.438 840.195 228.514 828.145 235.868 821.14C246.834 810.69 268.373 813.425 282.394 813.57C281.668 805.08 279.725 798.37 270.189 796.135C259.123 793.545 248.943 797.43 239.627 803.315C237.208 799.045 234.644 794.655 232.403 790.3C241.788 783.695 249.279 781.745 260.47 780.7ZM267.963 845.98C279.833 842.855 282.451 836.72 282.53 825.36C275.774 825.47 268.838 825.05 262.266 825.245C257.723 825.62 253.429 826.01 250.23 829.84C248.777 831.605 248.09 833.875 248.323 836.15C249.198 845.05 259.392 847.405 266.836 846.185C267.212 846.125 267.588 846.055 267.963 845.98Z" fill="#060606"/>
<path d="M714.1 780.695C736.39 777.385 755.57 788.745 755.265 812.705C755.075 827.715 755.15 843.485 755.365 858.485C749.75 858.555 744.14 858.58 738.53 858.56L738.215 850.63C725.215 863.285 701.61 862.97 689.245 849.39C686.39 845 684.81 841.09 684.985 835.785C685.855 809.42 720.01 813.19 737.385 813.52C737.025 810.025 736.72 805.72 734.675 802.83C725.135 789.37 705.565 796.27 694.815 802.965C692.385 798.765 690.01 794.535 687.69 790.275C697.21 784.155 702.86 782.12 714.1 780.695ZM723.345 845.895C730.555 843.61 733.085 841.43 736.99 834.895C737.04 831.835 737.135 828.64 737.1 825.595C730.825 824.88 723.675 825.045 717.345 825.22C712.81 825.59 708.38 825.87 705.165 829.755C703.505 831.735 702.805 834.345 703.26 836.89C704.82 846.1 715.745 847.6 723.345 845.895Z" fill="#060606"/>
<path d="M308.635 781.48L327.487 781.66C336.06 798.56 342.958 819.68 351.548 836.96C355.021 829.89 358.723 820.245 361.773 812.765C366.107 802.41 370.317 792 374.401 781.54C380.773 781.695 386.146 781.795 392.51 781.515C389.875 788.79 385.518 798.01 382.391 805.31L366.012 844.345C361.785 854.795 357.618 866.765 351.288 876.045C342.023 889.625 320.872 890.13 308.5 880.62C309.778 877.07 313.22 870.48 314.98 866.855C327.521 876.195 337.074 872.955 342.16 858.43L308.635 781.48Z" fill="#060606"/>
<path d="M578.8 780.67C594.29 779.28 609.435 784.04 617.315 798.24C612.8 800.75 608.08 803.75 603.59 806.415C597.98 799.605 590.97 794.74 581.71 795.6C575.47 796.17 569.745 799.29 565.88 804.22C557.86 814.51 559.02 832.415 570.23 840.02C581.12 847.41 594.46 845.755 602.24 834.765L603.23 833.93C605.535 834.075 616.015 839.52 616.68 841.645C611.205 852.165 603.685 857.195 591.97 859.125C580.235 861.06 567.925 858.98 558.22 851.805C536.51 835.77 537.71 798.505 562.3 785.705C568.225 782.595 572.295 781.565 578.8 780.67Z" fill="#060606"/>
<path d="M150.533 757.06L169.436 757.105C168.664 784.735 169.198 815.385 169.472 843.15C174.259 842.425 184.267 842.765 189.475 842.775C200.326 842.73 211.177 842.78 222.026 842.925C221.778 847.505 221.941 853.225 221.949 857.89L221.557 858.32C219.189 858.915 204.679 858.67 200.939 858.66L150.651 858.525C151.71 839.63 150.595 816.63 150.956 797.35C151.113 788.99 151.389 763.96 150.533 757.06Z" fill="#060606"/>
<path d="M802.56 750.63C810.535 749.665 816.05 750.73 823.15 754.24C821.845 758.985 820.75 762.54 819.07 767.16C813.66 765.015 805.95 762.795 801.185 767.675C797.355 771.605 797.905 777.26 797.995 782.33C804.795 782.47 811.6 782.52 818.405 782.49C818.28 787.095 818.385 792.005 818.405 796.635C812.49 796.355 803.98 796.555 798.005 796.75L797.935 847.25L798.01 858.49L779.695 858.545C780.655 839.15 778.84 816.165 780.025 796.665C775.735 796.565 771.44 796.57 767.15 796.695L767.13 782.56C771.42 782.58 775.71 782.575 780.005 782.535C778.2 765.355 784.985 753.73 802.56 750.63Z" fill="#060606"/>
<path d="M834.245 763.57C840.605 763.51 845.845 763.795 852.45 763.525C852.165 769.575 852.225 776.36 852.17 782.465L873.11 782.43V796.405C867.405 795.88 858.115 796.23 852.345 796.445C852.24 805.555 850.54 831.34 853.4 838.26C854.45 840.8 856.28 842.925 858.86 843.97C863.77 845.96 869.245 843.75 873.75 841.685C874.57 844.325 875.64 847.185 876.565 849.82L878.465 854.85C867.76 860.985 851.785 862.295 841.825 853.655C833.035 846.03 834.375 833.18 834.415 822.745C834.445 814.13 834.595 805.28 834.375 796.515C829.93 796.325 826.275 796.06 821.815 796.595C821.895 791.78 821.945 787.315 821.8 782.48L834.29 782.235C834.12 776.015 834.1 769.79 834.245 763.57Z" fill="#060606"/>
<path d="M529.74 780.82C531.645 780.63 533.05 780.34 534.915 780.785C535.39 782.825 535.24 794.18 535.285 797.375C534.295 797.29 533.3 797.24 532.305 797.22C515.375 796.965 508.365 807.67 508.345 823.465C508.325 835.14 508.39 846.825 508.515 858.495C502.655 858.37 496.375 858.49 490.481 858.51L490.349 854.125C489.984 830.365 490.074 805.31 490.228 781.535C496.376 781.53 501.01 781.88 507.41 781.575C507.37 785.125 507.415 788.745 507.425 792.3C514.52 784.155 518.91 781.885 529.74 780.82Z" fill="#060606"/>
<path d="M670.76 780.68L676.545 780.555L676.52 797.56C668.765 797.205 661.415 797.74 655.635 803.655C649.205 810.21 649.37 819.88 649.425 828.415C649.49 838.44 649.455 848.475 649.445 858.505C645.805 858.415 633.89 859.435 631.68 857.685L631.55 855.625L631.485 781.795C637.185 781.725 642.88 781.695 648.58 781.705L648.565 792.025C654.83 784.62 661.23 781.72 670.76 780.68Z" fill="#060606"/>
</svg>
